PathFileType	4	(X/Y/Z)	C:\Github\FootballMatch-and-Movement-Analysis\output\test Exam_2026-03-06_135002_tvc2_Sports2D\test Exam_2026-03-06_135002_tvc2_Sports2D_px_person00.trc
DataRate	CameraRate	NumFrames	NumMarkers	Units	OrigDataRate	OrigDataStartFrame	OrigNumFrames
30.0	30.0	6	22	m	30.0	387	516
Frame#	Time	Hip			RHip			RKnee			RAnkle			RBigToe			RSmallToe			RHeel			LHip			LKnee			LAnkle			LBigToe			LSmallToe			LHeel			Neck			Head			Nose			RShoulder			RElbow			RWrist			LShoulder			LElbow			LWrist			
		X1	Y1	Z1	X2	Y2	Z2	X3	Y3	Z3	X4	Y4	Z4	X5	Y5	Z5	X6	Y6	Z6	X7	Y7	Z7	X8	Y8	Z8	X9	Y9	Z9	X10	Y10	Z10	X11	Y11	Z11	X12	Y12	Z12	X13	Y13	Z13	X14	Y14	Z14	X15	Y15	Z15	X16	Y16	Z16	X17	Y17	Z17	X18	Y18	Z18	X19	Y19	Z19	X20	Y20	Z20	X21	Y21	Z21	X22	Y22	Z22
387	12.92504854368932	307.7400286799155	711.5634012968233	0.0	265.9618760082468	718.8157281349824	0.0	288.9126576148169	877.1350418663593	0.0	307.22781166800627	1018.1184097261412	0.0	301.87950739321457	1069.3943863337358	0.0	283.44981273587194	1065.447145530565	0.0	317.2995983424771	1036.5173553691702	0.0	350.7379158376488	704.3105388206764	0.0	355.37985898070474	837.5440131659909	0.0	358.80980904294466	1012.0843150169952	0.0	354.6210344839989	1064.2432984701004	0.0	378.92369674988674	1063.7542666897957	0.0	358.30562157986657	1036.5031374617568	0.0	297.33116701143615	476.5769106204531	0.0	298.41356093021807	373.20751797192037	0.0	293.90946568692266	429.7558770478779	0.0	219.52589977249386	521.2373121478685	0.0	149.8288350974383	592.6838394913894	0.0	213.40136803820138	666.1392112977959	0.0	373.6511094983814	523.8762140320222	0.0	455.4777845772921	587.9853220390274	0.0	404.39485535628864	660.5871381264285	0.0
388	12.958446601941748	307.5985223517148	706.7143944103318	0.0	265.50128125431445	714.2584404481202	0.0	289.29283716842434	875.0187770023003	0.0	308.7722051544224	1018.4865694255402	0.0	302.25077068343126	1069.4112720978042	0.0	284.4757236264991	1065.4060471857879	0.0	319.51699057253916	1037.5696815546573	0.0	350.89883988538475	700.0488496588159	0.0	353.87649204533056	832.2976729349126	0.0	357.98771300232715	1009.269603227764	0.0	353.6356936064517	1059.9323810844878	0.0	377.622987623432	1060.1290405906364	0.0	357.1516682145534	1034.136366457623	0.0	297.815490857412	470.47759016806583	0.0	300.05315294567583	366.7061913776007	0.0	295.202584593558	423.30172782169836	0.0	219.65917633433574	514.9439410958139	0.0	150.11254907459715	585.59321189888	0.0	212.37864338588375	659.518277701903	0.0	375.2790057487793	518.135057396298	0.0	456.1158054401755	584.3728440318977	0.0	404.0929679439963	656.2372283231128	0.0
389	12.991844660194175	307.0784631337486	702.1182574863129	0.0	264.9222727174755	710.2663475806751	0.0	289.05031170137687	872.8857796502784	0.0	309.9504276427525	1018.7651473606613	0.0	302.44353722789884	1068.0309269350441	0.0	285.52755828115227	1064.8162315505745	0.0	321.20750713443255	1037.5765062320575	0.0	350.43491911578906	696.3308026328732	0.0	353.025040799735	829.104198948676	0.0	357.2487489153578	1006.6035013587418	0.0	352.716215717407	1056.407383436873	0.0	376.55197279102936	1056.5492700517566	0.0	355.8561521302935	1030.9885756539775	0.0	299.044803017753	465.696366697156	0.0	302.1771111496281	360.60515519667405	0.0	296.83154633939586	417.418203718423	0.0	220.54327662637436	507.99010810854656	0.0	150.4396354233195	579.2223951872519	0.0	212.33352867057715	653.278089738568	0.0	376.96682121504625	512.9377750893792	0.0	456.47640078864345	581.2587030315262	0.0	403.81409385722816	651.8363803817836	0.0
390	13.025242718446602	306.5215171491187	697.5087141408608	0.0	264.8868754125325	705.629799379416	0.0	288.4553015905472	869.6826185441264	0.0	309.9905452485352	1016.8145822297715	0.0	301.939357268215	1066.1542960917022	0.0	286.17771554018105	1063.2761150228396	0.0	321.2627558479968	1036.2904083562457	0.0	349.7327743602789	692.1890486264167	0.0	352.4525029951178	826.855453796894	0.0	356.0708814538516	1003.4195339039073	0.0	352.19712235036116	1053.9778827394907	0.0	376.1921215914282	1053.1819386976938	0.0	354.64050599693945	1027.3854932256968	0.0	301.1893648277618	460.09857677726944	0.0	304.89211145224647	354.11853754377114	0.0	299.12289268787185	411.217305180386	0.0	221.7280117425155	500.01752464980115	0.0	150.65588536116658	572.7588826511238	0.0	212.58195996525419	647.5967111613082	0.0	378.66738781978864	508.1687336730165	0.0	456.55146537751216	578.082478176667	0.0	403.4003836723331	647.5414441477747	0.0
391	13.05864077669903	306.2637305371433	692.8551649175891	0.0	265.33811880577287	700.0273652959156	0.0	287.18879967318605	864.7914688798443	0.0	308.9050052586104	1011.0022899901471	0.0	301.4477421178674	1064.2439400670655	0.0	286.4012848192121	1060.6111806474273	0.0	320.0922511499829	1032.312938777124	0.0	349.4408492508395	687.5346932281705	0.0	351.6704686951214	825.2309434267687	0.0	354.31420285742433	999.2912948512283	0.0	351.9598068912294	1052.2473653570164	0.0	376.03272038295444	1050.0591912776495	0.0	353.3659753352587	1023.4704718129002	0.0	303.6133214395982	452.8835040410277	0.0	307.8564677702092	346.93074004518405	0.0	302.07459659682127	404.20421138052484	0.0	222.70382524950585	491.8898823973676	0.0	150.57341054621253	565.8000267123468	0.0	212.10841931326007	642.1636589073807	0.0	380.16700494590043	503.1785081866998	0.0	456.14224635409124	574.1453933903699	0.0	402.4935867940269	643.4448524088655	0.0
392	13.092038834951456	305.7641544529016	688.2194431892686	0.0	265.2029672217137	693.9551031690389	0.0	285.12137468212217	858.9489903721103	0.0	307.4476874784722	1003.9970402910346	0.0	302.3920399272047	1061.2035144604852	0.0	286.3793332363568	1057.2782277769156	0.0	318.7362843821266	1026.0665551335628	0.0	349.0205146766443	682.6685763149239	0.0	350.39891712243	824.1530319741235	0.0	352.61362023086247	995.4850946631037	0.0	352.08085056249945	1050.3981948149524	0.0	375.4203019738279	1047.5412503486264	0.0	352.0579680720456	1019.9985319736115	0.0	305.53401028549337	445.75441431648517	0.0	310.7396402960304	340.0493371758858	0.0	305.09346180095935	397.221929281777	0.0	223.7238599442467	484.8338440487559	0.0	150.46605616355637	558.6677642678642	0.0	210.83605211555277	636.8644966606881	0.0	380.81275468917414	497.48787304645316	0.0	454.9210068834593	569.6986598897508	0.0	400.9239202184562	639.112941826272	0.0
